<?xml version="1.0" standalone="no"?><!DOCTYPE svg PUBLIC "-//W3C//DTD SVG 1.1//EN" "http://www.w3.org/Graphics/SVG/1.1/DTD/svg11.dtd"><svg t="1588823405549" class="icon" viewBox="0 0 1024 1024" version="1.1" xmlns="http://www.w3.org/2000/svg" p-id="4100" xmlns:xlink="http://www.w3.org/1999/xlink" width="80" height="80"><defs><style type="text/css"></style></defs><path d="M343.8 64.6H184.2C117.5 64.6 64 118.2 64 184.8v160.6c0 65.7 53.5 119.2 120.2 119.2H464V184.8c0-66.6-53.5-120.2-120.2-120.2z m63.8 343.7H184.2c-34.7 0-63.8-28.2-63.8-63.8V184.8c0-34.7 28.2-63.8 63.8-63.8h160.6c34.7 0 63.8 28.2 63.8 63.8v223.5h-1zM839.5 64.6H679c-66.7 0-120.2 53.5-120.2 120.2v279.8h280.7c66.7 0 120.2-53.5 120.2-120.2V184.8c0-66.6-54.4-120.2-120.2-120.2z m63.9 279.8c0 34.7-28.2 63.8-63.8 63.8H615.1V184.8c0-34.7 28.2-63.8 63.8-63.8h160.5c34.7 0 63.8 28.2 63.8 63.8v159.6zM64 677.7v159.6c0 66.7 53.5 120.2 120.2 120.2h160.6c66.7 0 120.2-53.5 120.2-120.2V558.5H184.2C117.5 558.5 64 612 64 677.7z m343.6 160.6c0 34.7-28.2 63.8-63.8 63.8H184.2c-34.7 0-63.8-28.2-63.8-63.8V678.7c0-34.7 28.2-63.8 63.8-63.8h223.5v223.4z m431.9-279.8H558.8v279.8c0 66.7 53.5 120.2 120.2 120.2h160.5c66.7 0 120.2-53.5 120.2-120.2V678.7c0-66.7-54.4-120.2-120.2-120.2z m63.9 279.8c0 34.7-28.2 63.8-63.8 63.8H679c-34.7 0-63.8-28.2-63.8-63.8V614.8h224.4c34.7 0 63.8 28.2 63.8 63.8v159.7z m0 0" p-id="4101" fill="#cdcdcd"></path></svg>