<?xml version="1.0" standalone="no"?><!DOCTYPE svg PUBLIC "-//W3C//DTD SVG 1.1//EN" "http://www.w3.org/Graphics/SVG/1.1/DTD/svg11.dtd"><svg t="1588832681582" class="icon" viewBox="0 0 1024 1024" version="1.1" xmlns="http://www.w3.org/2000/svg" p-id="5765" xmlns:xlink="http://www.w3.org/1999/xlink" width="80" height="80"><defs><style type="text/css"></style></defs><path d="M475.631698 861.293291c-211.881688 0-384.261711-172.34523-384.261711-384.175753 0-101.287871 39.002292-196.853413 109.835547-269.083481 13.667278-13.925151 35.985586-14.131859 49.91176-0.483001 13.908778 13.649881 14.131859 35.985586 0.483001 49.91176-57.804521 58.942437-89.636506 136.963395-89.636506 219.654722 0 172.914188 140.702556 313.582975 313.668932 313.582975 173.017542 0 313.772286-140.668787 313.772286-313.582975 0-83.829244-32.659841-162.591075-91.963505-221.826178-13.804401-13.770632-13.804401-36.123732-0.034792-49.91176 13.753235-13.821797 36.08894-13.804401 49.91176-0.034792 72.66088 72.557526 112.679315 169.07065 112.679315 271.771707C859.996762 688.948061 687.564551 861.293291 475.631698 861.293291z" p-id="5766"></path><path d="M475.682863 417.71052c-19.491936 0-35.295877-15.803941-35.295877-35.295877L440.386986 102.490256c0-19.491936 15.803941-35.295877 35.295877-35.295877s35.296901 15.803941 35.296901 35.295877l0 279.923364C510.979764 401.906579 495.175823 417.71052 475.682863 417.71052z" p-id="5767"></path></svg>