<?xml version="1.0" standalone="no"?><!DOCTYPE svg PUBLIC "-//W3C//DTD SVG 1.1//EN" "http://www.w3.org/Graphics/SVG/1.1/DTD/svg11.dtd"><svg t="1588823388819" class="icon" viewBox="0 0 1024 1024" version="1.1" xmlns="http://www.w3.org/2000/svg" p-id="3820" xmlns:xlink="http://www.w3.org/1999/xlink" width="80" height="80"><defs><style type="text/css"></style></defs><path d="M811.2 1022.208H212.864a174.72 174.72 0 0 1-174.528-174.464V174.528A174.72 174.72 0 0 1 212.864 0h598.336a174.72 174.72 0 0 1 174.592 174.528v673.216a174.848 174.848 0 0 1-174.592 174.464zM212.864 49.856a124.8 124.8 0 0 0-124.672 124.672v673.216a124.8 124.8 0 0 0 124.672 124.544h598.336a124.8 124.8 0 0 0 124.672-124.544V174.528A124.8 124.8 0 0 0 811.2 49.856H212.864z" fill="#cdcdcd" p-id="3821"></path><path d="M736.384 498.624H586.752a99.84 99.84 0 0 1-99.648-99.776V249.28a99.84 99.84 0 0 1 99.648-99.712h149.632a99.84 99.84 0 0 1 99.776 99.712v149.568c-0.064 55.04-44.8 99.776-99.776 99.776zM586.752 199.424a49.92 49.92 0 0 0-49.792 49.856v149.568c0 27.52 22.4 49.92 49.792 49.92h149.632a49.92 49.92 0 0 0 49.92-49.92V249.28a49.92 49.92 0 0 0-49.92-49.856H586.752zM362.432 199.424H212.864a24.96 24.96 0 1 1 0-49.856h149.568a24.896 24.896 0 0 1 0 49.856zM362.432 349.056H212.864a24.96 24.96 0 1 1 0-49.856h149.568a24.896 24.896 0 0 1 0 49.856zM362.432 498.624H212.864a24.96 24.96 0 1 1 0-49.856h149.568a24.896 24.896 0 0 1 0 49.856zM811.2 648.256H212.864a24.96 24.96 0 1 1 0-49.92h598.336a24.96 24.96 0 1 1 0 49.92zM586.752 797.76H212.864a24.96 24.96 0 1 1 0-49.856h373.888a24.96 24.96 0 1 1 0 49.856z" fill="#cdcdcd" p-id="3822"></path></svg>